<svg xmlns="http://www.w3.org/2000/svg" xmlns:xlink="http://www.w3.org/1999/xlink" width="500" zoomAndPan="magnify" viewBox="0 0 375 374.999991" height="500" preserveAspectRatio="xMidYMid meet" version="1.0"><defs><clipPath id="199987931c"><path d="M 0 46.875 L 77 46.875 L 77 124 L 0 124 Z M 0 46.875 " clip-rule="nonzero"/></clipPath><clipPath id="b86c87bb8f"><path d="M 0 251 L 77 251 L 77 328.125 L 0 328.125 Z M 0 251 " clip-rule="nonzero"/></clipPath></defs><path fill="#000000" d="M 375.007812 85.226562 C 375.007812 66.402344 359.75 51.136719 340.917969 51.136719 L 127.84375 51.136719 C 109.015625 51.136719 93.757812 66.402344 93.757812 85.226562 C 93.757812 104.054688 109.015625 119.316406 127.84375 119.316406 L 340.917969 119.316406 C 359.75 119.316406 375.007812 104.054688 375.007812 85.226562 Z M 357.960938 85.226562 C 357.960938 94.644531 350.328125 102.273438 340.917969 102.273438 L 127.84375 102.273438 C 118.433594 102.273438 110.800781 94.644531 110.800781 85.226562 C 110.800781 75.808594 118.433594 68.183594 127.84375 68.183594 L 340.917969 68.183594 C 350.328125 68.183594 357.960938 75.808594 357.960938 85.226562 Z M 357.960938 85.226562 " fill-opacity="1" fill-rule="evenodd"/><path fill="#000000" d="M 375.007812 187.433594 C 375.007812 168.605469 359.75 153.339844 340.917969 153.339844 L 127.84375 153.339844 C 109.015625 153.339844 93.757812 168.605469 93.757812 187.433594 C 93.757812 206.257812 109.015625 221.523438 127.84375 221.523438 L 340.917969 221.523438 C 359.75 221.523438 375.007812 206.257812 375.007812 187.433594 Z M 357.960938 187.433594 C 357.960938 196.851562 350.328125 204.476562 340.917969 204.476562 L 127.84375 204.476562 C 118.433594 204.476562 110.800781 196.851562 110.800781 187.433594 C 110.800781 178.015625 118.433594 170.386719 127.84375 170.386719 L 340.917969 170.386719 C 350.328125 170.386719 357.960938 178.015625 357.960938 187.433594 Z M 357.960938 187.433594 " fill-opacity="1" fill-rule="evenodd"/><path fill="#000000" d="M 375.007812 289.636719 C 375.007812 270.808594 359.75 255.546875 340.917969 255.546875 L 127.84375 255.546875 C 109.015625 255.546875 93.757812 270.808594 93.757812 289.636719 C 93.757812 308.464844 109.015625 323.726562 127.84375 323.726562 L 340.917969 323.726562 C 359.75 323.726562 375.007812 308.464844 375.007812 289.636719 Z M 357.960938 289.636719 C 357.960938 299.054688 350.328125 306.683594 340.917969 306.683594 L 127.84375 306.683594 C 118.433594 306.683594 110.800781 299.054688 110.800781 289.636719 C 110.800781 280.21875 118.433594 272.589844 127.84375 272.589844 L 340.917969 272.589844 C 350.328125 272.589844 357.960938 280.21875 357.960938 289.636719 Z M 357.960938 289.636719 " fill-opacity="1" fill-rule="evenodd"/><g clip-path="url(#199987931c)"><path fill="#000000" d="M 38.367188 46.957031 C 17.191406 46.957031 0.015625 64.132812 0.015625 85.308594 C 0.015625 106.472656 17.191406 123.65625 38.367188 123.65625 C 59.53125 123.65625 76.71875 106.472656 76.71875 85.308594 C 76.71875 64.132812 59.53125 46.957031 38.367188 46.957031 Z M 38.367188 63.996094 C 50.128906 63.996094 59.667969 73.546875 59.667969 85.308594 C 59.667969 97.070312 50.128906 106.609375 38.367188 106.609375 C 26.605469 106.609375 17.054688 97.070312 17.054688 85.308594 C 17.054688 73.546875 26.605469 63.996094 38.367188 63.996094 Z M 38.367188 63.996094 " fill-opacity="1" fill-rule="evenodd"/></g><path fill="#000000" d="M 38.367188 149.160156 C 17.191406 149.160156 0.015625 166.339844 0.015625 187.511719 C 0.015625 208.675781 17.191406 225.863281 38.367188 225.863281 C 59.53125 225.863281 76.71875 208.675781 76.71875 187.511719 C 76.71875 166.339844 59.53125 149.160156 38.367188 149.160156 Z M 38.367188 166.199219 C 50.128906 166.199219 59.667969 175.75 59.667969 187.511719 C 59.667969 199.273438 50.128906 208.816406 38.367188 208.816406 C 26.605469 208.816406 17.054688 199.273438 17.054688 187.511719 C 17.054688 175.75 26.605469 166.199219 38.367188 166.199219 Z M 38.367188 166.199219 " fill-opacity="1" fill-rule="evenodd"/><g clip-path="url(#b86c87bb8f)"><path fill="#000000" d="M 38.367188 251.367188 C 17.191406 251.367188 0.015625 268.542969 0.015625 289.714844 C 0.015625 310.878906 17.191406 328.066406 38.367188 328.066406 C 59.53125 328.066406 76.71875 310.878906 76.71875 289.714844 C 76.71875 268.542969 59.53125 251.367188 38.367188 251.367188 Z M 38.367188 268.402344 C 50.128906 268.402344 59.667969 277.953125 59.667969 289.714844 C 59.667969 301.476562 50.128906 311.019531 38.367188 311.019531 C 26.605469 311.019531 17.054688 301.476562 17.054688 289.714844 C 17.054688 277.953125 26.605469 268.402344 38.367188 268.402344 Z M 38.367188 268.402344 " fill-opacity="1" fill-rule="evenodd"/></g></svg>