<svg xmlns="http://www.w3.org/2000/svg" xmlns:xlink="http://www.w3.org/1999/xlink" width="500" zoomAndPan="magnify" viewBox="0 0 375 374.999991" height="500" preserveAspectRatio="xMidYMid meet" version="1.0"><path fill="#000000" d="M 180.871094 201.796875 L 91.019531 201.796875 C 89.640625 201.796875 88.515625 200.679688 88.515625 199.292969 C 88.515625 183.757812 93.644531 170.679688 103.332031 161.472656 C 111.949219 153.28125 123.527344 148.78125 135.941406 148.78125 C 148.355469 148.78125 159.933594 153.289062 168.550781 161.472656 C 178.246094 170.679688 183.367188 183.765625 183.367188 199.292969 C 183.367188 200.679688 182.25 201.796875 180.871094 201.796875 Z M 93.566406 196.796875 L 178.316406 196.796875 C 177.175781 167.265625 155.824219 153.78125 135.933594 153.78125 C 116.058594 153.773438 94.707031 167.257812 93.566406 196.796875 Z M 93.566406 196.796875 " fill-opacity="1" fill-rule="nonzero"/><path fill="#000000" d="M 169.613281 194.71875 C 168.335938 194.71875 167.242188 193.738281 167.128906 192.4375 C 166.402344 184.261719 163.429688 177.65625 158.3125 172.789062 C 153.136719 167.878906 146.128906 165.167969 138.574219 165.167969 C 137.195312 165.167969 136.070312 164.050781 136.070312 162.664062 C 136.070312 161.289062 137.1875 160.164062 138.574219 160.164062 C 147.414062 160.164062 155.648438 163.355469 161.753906 169.164062 C 167.703125 174.8125 171.28125 182.703125 172.101562 191.984375 C 172.222656 193.363281 171.207031 194.570312 169.828125 194.695312 C 169.769531 194.71875 169.691406 194.71875 169.613281 194.71875 Z M 169.613281 194.71875 " fill-opacity="1" fill-rule="nonzero"/><path fill="#000000" d="M 135.941406 153.773438 C 134.5625 153.773438 133.4375 152.65625 133.4375 151.269531 L 133.4375 143.488281 C 133.4375 142.109375 134.554688 140.984375 135.941406 140.984375 C 137.320312 140.984375 138.445312 142.101562 138.445312 143.488281 L 138.445312 151.269531 C 138.4375 152.664062 137.328125 153.773438 135.941406 153.773438 Z M 135.941406 153.773438 " fill-opacity="1" fill-rule="nonzero"/><path fill="#000000" d="M 135.941406 145.996094 C 131.496094 145.996094 127.875 142.378906 127.875 137.929688 C 127.875 133.484375 131.496094 129.863281 135.941406 129.863281 C 140.386719 129.863281 144.007812 133.484375 144.007812 137.929688 C 144.007812 142.378906 140.386719 145.996094 135.941406 145.996094 Z M 135.941406 134.855469 C 134.25 134.855469 132.871094 136.230469 132.871094 137.921875 C 132.871094 139.613281 134.25 140.992188 135.941406 140.992188 C 137.632812 140.992188 139.011719 139.613281 139.011719 137.921875 C 139.011719 136.230469 137.632812 134.855469 135.941406 134.855469 Z M 135.941406 134.855469 " fill-opacity="1" fill-rule="nonzero"/><path fill="#000000" d="M 295.628906 245.886719 L 79.628906 245.886719 C 78.253906 245.886719 77.128906 244.769531 77.128906 243.382812 L 77.128906 219.855469 C 77.128906 218.480469 78.246094 217.355469 79.628906 217.355469 L 295.628906 217.355469 C 297.007812 217.355469 298.132812 218.472656 298.132812 219.855469 L 298.132812 243.382812 C 298.132812 244.769531 297.007812 245.886719 295.628906 245.886719 Z M 82.132812 240.886719 L 293.136719 240.886719 L 293.136719 222.359375 L 82.132812 222.359375 Z M 82.132812 240.886719 " fill-opacity="1" fill-rule="nonzero"/><path fill="#000000" d="M 232.796875 186.566406 C 232.5 186.566406 232.203125 186.511719 231.910156 186.398438 C 230.617188 185.902344 229.972656 184.460938 230.464844 183.175781 L 233.761719 174.535156 L 202.386719 174.535156 L 205.683594 183.175781 C 206.179688 184.46875 205.53125 185.90625 204.238281 186.398438 C 202.945312 186.886719 201.503906 186.246094 201.015625 184.953125 L 197.273438 175.148438 C 196.796875 173.90625 196.988281 172.53125 197.792969 171.359375 C 198.582031 170.210938 199.789062 169.53125 201.015625 169.53125 L 235.15625 169.53125 C 236.378906 169.53125 237.589844 170.21875 238.378906 171.367188 C 239.179688 172.53125 239.363281 173.914062 238.898438 175.15625 L 235.15625 184.960938 C 234.75 185.953125 233.800781 186.566406 232.796875 186.566406 Z M 232.796875 186.566406 " fill-opacity="1" fill-rule="nonzero"/><path fill="#000000" d="M 232.796875 198.597656 C 232.5 198.597656 232.203125 198.542969 231.910156 198.429688 C 230.617188 197.9375 229.972656 196.492188 230.464844 195.207031 L 233.761719 186.566406 L 202.386719 186.566406 L 205.683594 195.207031 C 206.179688 196.5 205.53125 197.9375 204.238281 198.429688 C 202.945312 198.925781 201.503906 198.277344 201.015625 196.980469 L 197.273438 187.179688 C 196.796875 185.9375 196.988281 184.5625 197.792969 183.390625 C 198.582031 182.242188 199.789062 181.5625 201.015625 181.5625 L 235.15625 181.5625 C 236.378906 181.5625 237.589844 182.25 238.378906 183.398438 C 239.179688 184.5625 239.363281 185.945312 238.898438 187.1875 L 235.15625 196.988281 C 234.75 197.984375 233.800781 198.597656 232.796875 198.597656 Z M 232.796875 198.597656 " fill-opacity="1" fill-rule="nonzero"/><path fill="#000000" d="M 232.796875 210.628906 C 232.5 210.628906 232.203125 210.574219 231.910156 210.460938 C 230.617188 209.96875 229.972656 208.523438 230.464844 207.238281 L 233.761719 198.597656 L 202.386719 198.597656 L 205.683594 207.238281 C 206.179688 208.53125 205.53125 209.96875 204.238281 210.460938 C 202.945312 210.957031 201.503906 210.304688 201.015625 209.011719 L 197.273438 199.210938 C 196.796875 197.96875 196.988281 196.59375 197.792969 195.421875 C 198.582031 194.273438 199.789062 193.585938 201.015625 193.585938 L 235.15625 193.585938 C 236.378906 193.585938 237.589844 194.273438 238.378906 195.421875 C 239.179688 196.585938 239.363281 197.96875 238.898438 199.210938 L 235.15625 209.011719 C 234.75 210.015625 233.800781 210.628906 232.796875 210.628906 Z M 232.796875 210.628906 " fill-opacity="1" fill-rule="nonzero"/><path fill="#000000" d="M 203.226562 222.359375 C 202.222656 222.359375 201.277344 221.746094 200.894531 220.753906 L 197.265625 211.246094 C 196.789062 210.007812 196.980469 208.628906 197.785156 207.460938 C 198.574219 206.3125 199.78125 205.621094 201.007812 205.621094 L 235.148438 205.621094 C 236.371094 205.621094 237.582031 206.3125 238.371094 207.460938 C 239.171875 208.621094 239.355469 210.007812 238.890625 211.246094 L 235.261719 220.753906 C 234.773438 222.046875 233.328125 222.6875 232.039062 222.199219 C 230.746094 221.710938 230.105469 220.261719 230.59375 218.976562 L 233.777344 210.636719 L 202.402344 210.636719 L 205.585938 218.976562 C 206.082031 220.269531 205.429688 221.710938 204.136719 222.199219 C 203.824219 222.304688 203.519531 222.359375 203.226562 222.359375 Z M 203.226562 222.359375 " fill-opacity="1" fill-rule="nonzero"/><path fill="#000000" d="M 280.636719 186.566406 C 280.339844 186.566406 280.039062 186.511719 279.75 186.398438 C 278.457031 185.902344 277.8125 184.460938 278.304688 183.175781 L 281.601562 174.535156 L 250.222656 174.535156 L 253.523438 183.175781 C 254.019531 184.46875 253.371094 185.90625 252.078125 186.398438 C 250.78125 186.886719 249.34375 186.246094 248.855469 184.953125 L 245.113281 175.148438 C 244.636719 173.90625 244.828125 172.53125 245.632812 171.359375 C 246.421875 170.210938 247.628906 169.53125 248.855469 169.53125 L 282.996094 169.53125 C 284.21875 169.53125 285.429688 170.21875 286.214844 171.367188 C 287.019531 172.53125 287.203125 173.914062 286.738281 175.15625 L 282.996094 184.960938 C 282.597656 185.953125 281.648438 186.566406 280.636719 186.566406 Z M 280.636719 186.566406 " fill-opacity="1" fill-rule="nonzero"/><path fill="#000000" d="M 280.636719 198.597656 C 280.339844 198.597656 280.039062 198.542969 279.75 198.429688 C 278.457031 197.9375 277.8125 196.492188 278.304688 195.207031 L 281.601562 186.566406 L 250.222656 186.566406 L 253.523438 195.207031 C 254.019531 196.5 253.371094 197.9375 252.078125 198.429688 C 250.78125 198.925781 249.34375 198.277344 248.855469 196.980469 L 245.113281 187.179688 C 244.636719 185.9375 244.828125 184.5625 245.632812 183.390625 C 246.421875 182.242188 247.628906 181.5625 248.855469 181.5625 L 282.996094 181.5625 C 284.21875 181.5625 285.429688 182.25 286.214844 183.398438 C 287.019531 184.5625 287.203125 185.945312 286.738281 187.1875 L 282.996094 196.988281 C 282.597656 197.984375 281.648438 198.597656 280.636719 198.597656 Z M 280.636719 198.597656 " fill-opacity="1" fill-rule="nonzero"/><path fill="#000000" d="M 280.636719 210.628906 C 280.339844 210.628906 280.039062 210.574219 279.75 210.460938 C 278.457031 209.96875 277.8125 208.523438 278.304688 207.238281 L 281.601562 198.597656 L 250.222656 198.597656 L 253.523438 207.238281 C 254.019531 208.53125 253.371094 209.96875 252.078125 210.460938 C 250.78125 210.957031 249.34375 210.304688 248.855469 209.011719 L 245.113281 199.210938 C 244.636719 197.96875 244.828125 196.59375 245.632812 195.421875 C 246.421875 194.273438 247.628906 193.585938 248.855469 193.585938 L 282.996094 193.585938 C 284.21875 193.585938 285.429688 194.273438 286.214844 195.421875 C 287.019531 196.585938 287.203125 197.96875 286.738281 199.210938 L 282.996094 209.011719 C 282.597656 210.015625 281.648438 210.628906 280.636719 210.628906 Z M 280.636719 210.628906 " fill-opacity="1" fill-rule="nonzero"/><path fill="#000000" d="M 251.074219 222.359375 C 250.070312 222.359375 249.121094 221.746094 248.738281 220.753906 L 245.113281 211.246094 C 244.636719 210.007812 244.828125 208.628906 245.632812 207.460938 C 246.421875 206.3125 247.628906 205.621094 248.855469 205.621094 L 282.996094 205.621094 C 284.21875 205.621094 285.429688 206.3125 286.21875 207.460938 C 287.019531 208.621094 287.203125 210.007812 286.738281 211.246094 L 283.109375 220.753906 C 282.613281 222.046875 281.171875 222.6875 279.886719 222.199219 C 278.59375 221.710938 277.953125 220.261719 278.441406 218.976562 L 281.625 210.636719 L 250.246094 210.636719 L 253.429688 218.976562 C 253.929688 220.269531 253.277344 221.710938 251.984375 222.199219 C 251.671875 222.304688 251.371094 222.359375 251.074219 222.359375 Z M 251.074219 222.359375 " fill-opacity="1" fill-rule="nonzero"/><path fill="#000000" d="M 180.773438 222.359375 C 179.394531 222.359375 178.269531 221.242188 178.269531 219.855469 C 178.269531 218.480469 179.386719 217.355469 180.773438 217.355469 C 182.210938 217.355469 183.375 216.191406 183.375 214.753906 C 183.375 213.3125 182.210938 212.152344 180.773438 212.152344 L 92.289062 212.152344 C 90.847656 212.152344 89.6875 213.3125 89.6875 214.753906 C 89.6875 216.191406 90.847656 217.355469 92.289062 217.355469 C 93.664062 217.355469 94.789062 218.472656 94.789062 219.855469 C 94.789062 221.234375 93.671875 222.359375 92.289062 222.359375 C 88.101562 222.359375 84.6875 218.945312 84.6875 214.761719 C 84.6875 210.574219 88.101562 207.160156 92.289062 207.160156 L 180.78125 207.160156 C 184.96875 207.160156 188.378906 210.574219 188.378906 214.761719 C 188.378906 218.945312 184.96875 222.359375 180.773438 222.359375 Z M 180.773438 222.359375 " fill-opacity="1" fill-rule="nonzero"/><path fill="#000000" d="M 175.355469 212.15625 C 173.976562 212.15625 172.851562 211.039062 172.851562 209.65625 L 172.851562 199.292969 C 172.851562 197.914062 173.96875 196.789062 175.355469 196.789062 C 176.738281 196.789062 177.855469 197.90625 177.855469 199.292969 L 177.855469 209.65625 C 177.855469 211.03125 176.730469 212.15625 175.355469 212.15625 Z M 97.707031 212.15625 C 96.328125 212.15625 95.203125 211.039062 95.203125 209.65625 L 95.203125 199.292969 C 95.203125 197.914062 96.320312 196.789062 97.707031 196.789062 C 99.085938 196.789062 100.210938 197.90625 100.210938 199.292969 L 100.210938 209.65625 C 100.203125 211.03125 99.085938 212.15625 97.707031 212.15625 Z M 97.707031 212.15625 " fill-opacity="1" fill-rule="nonzero"/><path fill="#000000" d="M 187.5 375 C 162.191406 375 137.632812 370.039062 114.511719 360.269531 C 92.1875 350.824219 72.128906 337.308594 54.910156 320.089844 C 37.691406 302.871094 24.175781 282.820312 14.730469 260.488281 C 4.960938 237.367188 0 212.808594 0 187.5 C 0 162.191406 4.960938 137.632812 14.730469 114.511719 C 24.175781 92.1875 37.691406 72.128906 54.910156 54.910156 C 72.128906 37.691406 92.179688 24.175781 114.511719 14.730469 C 137.632812 4.960938 162.191406 0 187.5 0 C 212.808594 0 237.367188 4.960938 260.488281 14.730469 C 282.8125 24.175781 302.871094 37.691406 320.089844 54.910156 C 337.308594 72.128906 350.824219 92.179688 360.269531 114.511719 C 370.046875 137.632812 375 162.183594 375 187.5 C 375 212.808594 370.039062 237.367188 360.269531 260.488281 C 350.824219 282.8125 337.308594 302.871094 320.089844 320.089844 C 302.871094 337.308594 282.820312 350.824219 260.488281 360.269531 C 237.367188 370.039062 212.808594 375 187.5 375 Z M 187.5 4.9375 C 86.832031 4.9375 4.9375 86.832031 4.9375 187.5 C 4.9375 288.167969 86.832031 370.0625 187.5 370.0625 C 288.167969 370.0625 370.0625 288.167969 370.0625 187.5 C 370.0625 86.832031 288.167969 4.9375 187.5 4.9375 Z M 187.5 4.9375 " fill-opacity="1" fill-rule="nonzero"/></svg>