<svg xmlns="http://www.w3.org/2000/svg" xmlns:xlink="http://www.w3.org/1999/xlink" width="500" zoomAndPan="magnify" viewBox="0 0 375 374.999991" height="500" preserveAspectRatio="xMidYMid meet" version="1.0"><defs><clipPath id="98d5e165eb"><path d="M 10.578125 3.023438 L 364.578125 3.023438 L 364.578125 375 L 10.578125 375 Z M 10.578125 3.023438 " clip-rule="nonzero"/></clipPath></defs><path fill="#000000" d="M 187.589844 95.097656 C 148.484375 95.097656 116.785156 128.378906 116.785156 169.433594 C 116.785156 210.496094 148.484375 243.777344 187.589844 243.777344 C 226.695312 243.777344 258.390625 210.496094 258.390625 169.433594 C 258.390625 128.378906 226.695312 95.097656 187.589844 95.097656 " fill-opacity="1" fill-rule="nonzero"/><g clip-path="url(#98d5e165eb)"><path fill="#000000" d="M 305.179688 317.328125 C 289.5 279.0625 256.582031 255.132812 187.480469 255.132812 C 118.472656 255.132812 85.554688 279 69.847656 317.179688 C 37.886719 284.792969 18 239.347656 18 189.023438 C 18 90.683594 93.925781 10.960938 187.589844 10.960938 C 281.253906 10.960938 357.179688 90.683594 357.179688 189.023438 C 357.179688 239.425781 337.234375 284.933594 305.179688 317.328125 Z M 187.589844 3.171875 C 89.828125 3.171875 10.578125 86.378906 10.578125 189.023438 C 10.578125 242.710938 32.257812 291.082031 66.929688 325.011719 C 98.542969 355.949219 140.960938 374.878906 187.589844 374.878906 C 234.136719 374.878906 276.488281 356.011719 308.089844 325.164062 C 342.851562 291.230469 364.601562 242.792969 364.601562 189.023438 C 364.601562 86.378906 285.347656 3.171875 187.589844 3.171875 " fill-opacity="1" fill-rule="nonzero"/></g></svg>